<svg xmlns="http://www.w3.org/2000/svg" xmlSpace="preserve" width="0.984252in" height="0.605299in" version="1.1" style={{shapeRendering: 'geometricPrecision', textRendering: 'geometricPrecision', imageRendering: 'optimizeQuality', fillRule: 'evenodd', clipRule: 'evenodd'}} viewBox="0 0 4.38 2.69" xmlnsXlink="http://www.w3.org/1999/xlink" xmlns:xodm="http://www.corel.com/coreldraw/odm/2003">
  <defs>
    <style type="text/css" dangerouslySetInnerHTML={{__html: "\n   \n    .fil1 {fill:#1A1A1A}\n    .fil0 {fill:#1A1A1A;fill-rule:nonzero}\n   \n  " }} />
  </defs>
  <g id="Layer_x0020_1">
    <metadata id="CorelCorpID_0Corel-Layer" />
    <g id="_1584757215360">
      <path className="fil0" d="M1.86 0.53c-0.01,0.04 -0.04,0.07 -0.07,0.09 -0.03,0.02 -0.07,0.03 -0.11,0.02 -0.05,-0.01 -0.09,-0.05 -0.1,-0.1 -0.32,-0.08 -0.65,0.03 -0.86,0.27 0.01,0.02 0.01,0.05 0,0.08 -0.02,0.06 -0.07,0.1 -0.13,0.11 -0.02,0 -0.03,0 -0.05,-0 -0.04,-0.01 -0.07,-0.04 -0.09,-0.07 -0.02,-0.03 -0.02,-0.07 -0.01,-0.11 0.02,-0.07 0.09,-0.12 0.16,-0.11 0.25,-0.28 0.64,-0.42 1.03,-0.32 0.04,-0.03 0.08,-0.04 0.13,-0.03 0.06,0.02 0.1,0.07 0.11,0.13 0,0.02 0,0.03 -0,0.05z" />
      <path className="fil0" d="M2.29 0.33c-0.02,-0.06 -0.07,-0.1 -0.14,-0.1 -0.01,0 -0.02,0 -0.03,0 -0.22,-0.15 -0.48,-0.23 -0.76,-0.23 -0.65,0 -1.2,0.46 -1.33,1.08l-0 0 -0 0c-0.01,0.05 -0.02,0.1 -0.02,0.14l0.8 -0.01 0.1 -0.14c0.09,-0.09 0.24,-0.18 0.4,-0.16 0,0 0.01,0.01 0.01,0.01 0,0 0,0 0,0 0.02,0.03 0.06,0.05 0.11,0.05 0.07,0 0.13,-0.06 0.13,-0.13 0,-0.07 -0.06,-0.13 -0.13,-0.13 -0.05,0 -0.1,0.03 -0.12,0.08 -0.23,-0.02 -0.43,0.09 -0.56,0.28l-0.55 0c0.13,-0.53 0.6,-0.92 1.17,-0.92 0.24,0 0.47,0.07 0.66,0.19 -0,0.01 -0,0.01 -0,0.02 0,0.01 0,0.02 0,0.03 0.01,0.06 0.07,0.11 0.14,0.11 0.02,0 0.03,-0 0.05,-0.01 0.02,-0.01 0.04,-0.02 0.05,-0.03 0.03,-0.03 0.04,-0.06 0.04,-0.1 0,-0 0,-0 0,-0 0,-0.01 -0,-0.03 -0.01,-0.04z" />
      <path className="fil0" d="M1.86 2.17c-0.01,-0.04 -0.04,-0.07 -0.07,-0.09 -0.03,-0.02 -0.07,-0.03 -0.11,-0.02 -0.05,0.01 -0.09,0.05 -0.1,0.1 -0.32,0.08 -0.65,-0.03 -0.86,-0.27 0.01,-0.02 0.01,-0.05 0,-0.08 -0.02,-0.06 -0.07,-0.1 -0.13,-0.11 -0.02,-0 -0.03,-0 -0.05,0 -0.04,0.01 -0.07,0.04 -0.09,0.07 -0.02,0.03 -0.02,0.07 -0.01,0.11 0.02,0.07 0.09,0.12 0.16,0.11 0.25,0.28 0.64,0.42 1.03,0.32 0.04,0.03 0.08,0.04 0.13,0.03 0.06,-0.02 0.1,-0.07 0.11,-0.13 0,-0.02 0,-0.03 -0,-0.05z" />
      <path className="fil0" d="M2.29 2.36c-0.02,0.06 -0.07,0.1 -0.14,0.1 -0.01,0 -0.02,-0 -0.03,-0 -0.22,0.15 -0.48,0.23 -0.76,0.23 -0.65,0 -1.2,-0.46 -1.33,-1.08l-0 -0 -0 -0c-0.01,-0.05 -0.02,-0.1 -0.02,-0.14l0.8 0.01 0.1 0.14c0.09,0.09 0.24,0.18 0.4,0.16 0,-0 0.01,-0.01 0.01,-0.01 0,-0 0,-0 0,-0 0.02,-0.03 0.06,-0.05 0.11,-0.05 0.07,0 0.13,0.06 0.13,0.13 0,0.07 -0.06,0.13 -0.13,0.13 -0.05,0 -0.1,-0.03 -0.12,-0.08 -0.23,0.02 -0.43,-0.09 -0.56,-0.28l-0.55 0c0.13,0.53 0.6,0.92 1.17,0.92 0.24,0 0.47,-0.07 0.66,-0.19 -0,-0.01 -0,-0.01 -0,-0.02 0,-0.01 0,-0.02 0,-0.03 0.01,-0.06 0.07,-0.11 0.14,-0.11 0.02,0 0.03,0 0.05,0.01 0.02,0.01 0.04,0.02 0.05,0.03 0.03,0.03 0.04,0.06 0.04,0.1 0,0 0,0 0,0 0,0.01 -0,0.03 -0.01,0.04z" />
      <path className="fil0" d="M1.07 1.08l0 0.58 0.16 0 0 -0.58 -0.16 0zm0.22 0l0 0.15 0.25 0 0 0.43 0.16 0 0 -0.43 0.25 0 0 -0.15 -0.66 0z" />
      <path className="fil0" d="M2.12 1.08l0 0.15 0.25 0 0 0.43 0.16 0 0 -0.43 0.25 0 0 -0.15 -0.66 0zm1.12 0.09c-0.03,-0.07 -0.09,-0.11 -0.17,-0.11 -0.08,0 -0.14,0.04 -0.17,0.11l-0.21 0.46c-0,0.01 -0.01,0.02 -0.01,0.03l0.18 0c0,-0.01 0,-0.01 0.01,-0.02l0.03 -0.07 0.34 0 0.03 0.07c0,0.01 0.01,0.01 0.01,0.02l0.17 0c-0,-0.01 -0.01,-0.02 -0.01,-0.03l-0.21 -0.46zm-0.28 0.27l0.09 -0.21c0.01,-0.01 0.02,-0.02 0.03,-0.02 0.01,0 0.02,0.01 0.03,0.02l0.09 0.21 -0.23 0zm0.4 -0.36l0 0.15 0.25 0 0 0.43 0.16 0 0 -0.43 0.25 0 0 -0.15 -0.66 0z" />
      <path className="fil1" d="M4.27 1.13c-0.03,0 -0.04,-0.01 -0.07,-0.02 -0.01,-0.01 -0.01,-0.01 -0.01,-0.01 -0,-0 -0,-0 -0.01,-0.01 -0.02,-0.03 -0.02,-0.07 0,-0.1 0.02,-0.02 0.05,-0.04 0.08,-0.04 0.02,0 0.04,0.01 0.05,0.02 0.02,0.01 0.03,0.03 0.04,0.05 0,0 0,0.01 0,0.01 0,0 0,0.01 0,0.01 0,0.02 -0.01,0.05 -0.02,0.07 -0.01,0.02 -0.04,0.03 -0.06,0.03zm-0.01 0.02l0.01 0c0.01,-0 0.03,-0 0.04,-0.01 0.01,-0.01 0.02,-0.01 0.03,-0.02 0.01,-0.01 0.02,-0.02 0.02,-0.03 0.01,-0.01 0.01,-0.03 0.01,-0.05l0 -0 0 -0 0 -0c-0,-0.02 -0.01,-0.04 -0.02,-0.06 -0.01,-0.01 -0.01,-0.01 -0.02,-0.02 -0.02,-0.02 -0.05,-0.03 -0.08,-0.03 -0.02,0 -0.04,0 -0.06,0.01 -0.02,0.01 -0.04,0.03 -0.05,0.05 -0.01,0.01 -0.01,0.03 -0.01,0.04l0 0 0 0 0 0 0 0 0 0 0 0 0 0c0,0.02 0,0.03 0.01,0.05 0,0.01 0.01,0.02 0.02,0.03 0.02,0.02 0.05,0.04 0.08,0.04z" />
      <path className="fil1" d="M4.26 1.03l-0.01 0 0 -0.03c0.02,0 0.03,-0 0.03,0.02 0,0.01 -0.01,0.01 -0.02,0.01zm-0.05 0.07c0,0 0,0 0,0l0.03 0 0 -0.05c0.02,0 0.02,0 0.03,0.02 0.01,0.01 0.01,0.02 0.02,0.03l0.03 0c-0,-0 -0.01,-0.03 -0.02,-0.03 -0,-0.01 -0.01,-0.02 -0.02,-0.03 0,-0.01 0.02,-0 0.02,-0.03 0,-0.02 -0.02,-0.03 -0.04,-0.03l-0.06 0 0 0.12z" />
    </g>
  </g>
</svg>
